<svg width="231" height="54" viewBox="0 0 231 54" fill="none" xmlns="http://www.w3.org/2000/svg">
    <path d="M191.34 36.2977C187.827 36.2977 184.488 36.2977 180.994 36.2977C180.994 35.7288 180.994 35.2484 180.994 34.7694C180.994 28.2402 180.985 21.7111 180.997 15.182C181.002 12.8018 180.688 10.51 178.291 9.33235C175.573 7.99705 172.749 7.99558 170.027 9.40899C168.722 10.087 168.225 11.3692 168.051 12.7443C167.928 13.717 167.903 14.706 167.9 15.689C167.888 21.9941 167.894 28.3007 167.892 34.6058C167.892 35.1349 167.892 35.6625 167.892 36.2904C164.415 36.2904 161.075 36.2904 157.501 36.2904C157.501 35.776 157.501 35.2616 157.501 34.7472C157.501 28.2181 157.513 21.689 157.497 15.1599C157.482 9.43552 152.24 6.44215 147.184 9.27487C144.826 10.5954 144.401 12.9094 144.379 15.2867C144.318 21.7701 144.354 28.255 144.352 34.7399C144.352 35.2248 144.352 35.7082 144.352 36.2904C140.916 36.2904 137.585 36.2904 134.154 36.2904C134.128 35.8865 134.077 35.4974 134.077 35.1083C134.073 28.6234 133.955 22.1356 134.135 15.6566C134.209 13.0155 134.648 10.3036 135.427 7.77893C136.6 3.97347 139.538 1.79661 143.368 0.888724C147.527 -0.0958011 151.725 -0.10317 155.915 0.710389C158.802 1.27045 161.252 2.52616 162.68 5.48563C164.892 1.44731 168.62 0.517316 172.612 0.309505C174.97 0.187176 177.381 0.190124 179.71 0.532055C186.788 1.56964 190.552 5.63891 191.118 12.8121C191.363 15.9263 191.306 19.0656 191.329 22.1946C191.361 26.3979 191.337 30.6013 191.337 34.8062C191.34 35.2852 191.34 35.7642 191.34 36.2977Z" fill="#00CBF8"/>
    <path d="M116.421 3.56968C116.461 2.80476 116.504 1.98235 116.552 1.06857C119.95 1.06857 123.287 1.06857 126.765 1.06857C126.787 1.55347 126.825 2.0251 126.825 2.49525C126.83 9.10984 126.93 15.7274 126.787 22.3376C126.712 25.7893 128.144 28.1445 131.033 29.7981C131.49 30.059 131.939 30.3331 132.662 30.762C130.439 32.9182 128.352 34.9846 126.197 36.9772C125.947 37.2086 125.275 37.157 124.87 37.0229C122.369 36.1931 120.376 34.6603 118.784 32.3287C118.342 32.7237 117.965 33.0701 117.578 33.4061C112.501 37.8188 103.51 39.0214 97.4457 34.2521C93.9267 31.4842 92.304 27.6625 91.6138 23.4135C90.9191 19.1349 91.0669 14.8652 92.3572 10.681C94.9775 2.1828 104.472 -2.29031 112.699 1.18648C114.016 1.74212 115.145 2.73843 116.421 3.56968ZM116.484 18.4275C116.484 16.9521 116.518 15.4768 116.464 14.003C116.447 13.549 116.304 13.0008 116.016 12.6736C114.454 10.9079 112.63 9.49599 110.321 8.79886C107.371 7.90866 104.503 9.02583 103.224 11.8129C102.583 13.2101 102.138 14.762 101.952 16.2874C101.557 19.4975 101.562 22.7237 102.918 25.7716C104.053 28.3213 106.106 29.3516 108.799 28.7797C111.292 28.2506 113.276 26.8298 115.147 25.1924C116.119 24.342 116.648 23.3987 116.511 22.0443C116.388 20.8504 116.484 19.6345 116.484 18.4275Z" fill="#00CBF8"/>
    <path d="M89.6628 22.4495C81.4633 22.4495 73.3672 22.4495 65.1559 22.4495C65.3184 24.8578 66.3811 26.5424 68.3364 27.6772C71.0203 29.2366 73.9244 29.2572 76.8005 28.5601C79.5612 27.891 82.2481 26.9212 85.2232 26.0044C86.4602 28.1813 87.8553 30.6352 89.3022 33.1791C86.3937 34.7473 83.4629 35.7775 80.3844 36.4466C75.7334 37.4591 71.0986 37.748 66.4505 36.423C59.5767 34.4643 55.5937 29.9646 54.4705 22.9418C53.897 19.353 54.1291 15.7937 55.1858 12.3272C57.0273 6.283 61.0265 2.33606 67.188 0.826847C73.1854 -0.641097 78.8873 0.0280264 83.8014 4.11498C87.5686 7.24836 89.2254 11.4871 89.6348 16.2344C89.8047 18.2211 89.6628 20.2329 89.6628 22.4495ZM78.7957 16.0177C79.1282 12.1518 76.0083 8.63525 72.1938 8.50408C68.3497 8.3729 64.9549 11.8954 65.0184 16.0177C69.6118 16.0177 74.2067 16.0177 78.7957 16.0177Z" fill="#00CBF8"/>
    <path d="M210.621 23.7805C211.657 21.4754 212.589 19.409 213.515 17.3383C215.792 12.2359 218.081 7.14081 220.321 2.02217C220.657 1.25282 221.059 0.943318 221.911 0.956582C224.858 1.00374 227.806 0.974268 231 0.974268C229.708 3.79225 228.519 6.41126 227.308 9.02143C223.491 17.2528 219.651 25.4739 215.869 33.7215C215.494 34.541 215.337 35.5063 215.285 36.4157C215.145 38.8667 215.375 41.3648 214.987 43.7687C214.226 48.4717 211.78 52.0428 207.121 53.8144C206.217 54.1578 205.574 54.0354 204.87 53.3044C203.042 51.4061 201.118 49.5977 199.068 47.5918C199.653 47.2558 200.055 47.0229 200.459 46.7915C203.414 45.0981 204.996 42.6972 204.971 39.1511C204.952 36.3833 204.567 33.835 203.42 31.2572C199.244 21.8659 195.256 12.3892 191.199 2.94479C190.957 2.37884 190.724 1.80846 190.412 1.06122C191.006 1.0229 191.43 0.974268 191.856 0.972794C194.545 0.965425 197.237 1.01406 199.925 0.946265C200.923 0.92121 201.428 1.21156 201.811 2.1666C204.487 8.84457 207.228 15.4975 209.948 22.1578C210.133 22.6146 210.322 23.0627 210.621 23.7805Z" fill="#00CBF8"/>
    <path d="M33.4366 33.1717C29.5704 35.3737 25.6051 36.5159 21.4492 37.1054C18.0189 37.5933 14.6551 37.3309 11.3697 36.2697C5.87182 34.4938 2.29524 30.8136 0.823223 25.2395C-0.280788 21.0568 -0.289656 16.8018 0.886774 12.6367C2.95883 5.31176 8.11088 1.40903 15.4739 0.409767C21.5644 -0.417057 27.4363 0.676532 33.0184 3.2587C33.175 3.33092 33.311 3.44882 33.5564 3.60947C32.7243 6.05162 31.8952 8.48788 31.0793 10.8843C28.391 10.1666 25.8445 9.31323 23.2286 8.84897C21.362 8.51736 19.3653 8.45251 17.4942 8.72517C14.1985 9.20417 11.9875 11.1629 11.1288 14.4672C10.3706 17.3825 10.3529 20.3095 11.1525 23.213C12.3038 27.3943 15.6276 29.5446 19.9151 28.8431C21.5364 28.5778 23.1577 28.2049 24.7198 27.7008C26.2421 27.2101 27.6905 26.4908 29.3679 25.7893C30.6833 28.1784 32.0282 30.6176 33.4366 33.1717Z" fill="#00CBF8"/>
    <path d="M55.3485 0.32574C55.3485 3.12014 55.3485 5.82611 55.3485 8.60135C53.9917 8.60135 52.7015 8.52618 51.4246 8.61609C47.4356 8.89612 45.3621 10.9978 45.303 14.9816C45.2232 20.3022 45.2734 25.6257 45.269 30.9477C45.2675 32.6839 45.269 34.4215 45.269 36.2712C41.8151 36.2712 38.4809 36.2712 34.9856 36.2712C34.9649 35.8099 34.925 35.3397 34.925 34.8681C34.9205 28.5616 35.0314 22.2535 34.8969 15.9499C34.6885 6.17099 40.2366 1.22626 49.3067 0.352269C51.2531 0.165092 53.2335 0.32574 55.3485 0.32574Z" fill="#00CBF8"/>
</svg>
